<?xml version="1.0" standalone="no"?><!DOCTYPE svg PUBLIC "-//W3C//DTD SVG 1.1//EN" "http://www.w3.org/Graphics/SVG/1.1/DTD/svg11.dtd"><svg t="1732901283628" class="icon" viewBox="0 0 1024 1024" version="1.1" xmlns="http://www.w3.org/2000/svg" p-id="1832" xmlns:xlink="http://www.w3.org/1999/xlink" width="200" height="200"><path d="M546.670343 731.014582a55.4 13.8 56 1 0-22.881437 15.433725 55.4 13.8 56 1 0 22.881437-15.433725Z" fill="#8CC53C" p-id="1833"></path><path d="M505.856399 690.528924L736.395211 485.81484c40.024641-35.440487 101.33957-31.805999 136.862961 8.162722 2.846033 3.146442 5.499273 6.543546 7.903803 10.108407 29.97274 44.436414 18.261481 104.685617-26.174933 134.658357-3.564862 2.404529-7.297481 4.560348-11.114955 6.411535l-276.030129 137.091603" fill="#8CC53C" p-id="1834"></path><path d="M567.806183 796.1431c-5.047698 0.027305-9.972176-2.802804-12.411491-7.671042-3.420828-6.859878-0.581288-15.168128 6.27859-18.588956L837.759331 632.874403c3.264132-1.598576 6.443409-3.501782 9.510849-5.570796 18.404634-12.414082 30.92246-31.230937 35.159021-53.026156S882.108354 530.346289 869.694272 511.941655c-2.069014-3.067439-4.303835-6.023039-6.731449-8.727979-30.444487-34.227229-83.04835-37.465072-117.358482-6.964665l-230.511827 204.575261c-5.741493 5.078904-14.425574 4.543436-19.587382-1.142138-5.078904-5.741493-4.543436-14.425574 1.142138-19.587382L727.159097 475.519491c45.710214-40.602294 115.848048-36.405354 156.450342 9.304861 3.181548 3.643865 6.309128 7.565375 8.993254 11.544755 16.55211 24.539512 22.563741 54.017475 16.897003 83.170315-5.639754 29.014017-22.283264 54.232335-46.822777 70.784445-4.062284 2.740045-8.292326 5.231379-12.663141 7.335179l-276.03013 137.091603c-1.991641 0.981513-4.09707 1.436669-6.177465 1.392451z" fill="#333333" p-id="1835"></path><path d="M547.408974 763.220557c-4.687148 0.025355-9.332029-2.390236-11.935202-6.786085-3.918251-6.524363-1.745841-15.106358 4.834441-18.941705l320.316686-189.64016 1.243557-0.83879c11.523622-7.772781 14.599851-23.598609 6.82707-35.122231l-0.838789-1.243556c-4.134127-5.413778-10.032316-8.793329-16.776776-9.672114-6.74446-0.878785-13.363428 0.932086-18.750222 4.92739l-296.901787 226.678956c-6.077008 4.581481-14.791975 3.463736-19.373456-2.613272-4.581481-6.077008-3.463736-14.791975 2.613272-19.373456L815.569554 483.916577c11.242075-8.54785 25.145193-12.256397 39.189405-10.390888 14.044212 1.865508 26.536656 9.120082 35.084506 20.362157 0.642097 0.773118 1.257209 1.68506 1.816402 2.514097 16.328433 24.207897 9.90613 57.247782-14.301768 73.576215-0.829038 0.559193-1.740979 1.174305-2.625936 1.650594L554.415477 761.268912c-2.211417 1.370998-4.648461 2.049831-7.006503 1.951645z" fill="#333333" p-id="1836"></path><path d="M924.578509 475.283634c4.249866 6.300686 2.576829 14.907715-3.723856 19.157581l-22.964341 15.489643c-6.300686 4.249866-14.907715 2.576829-19.15758-3.723856-4.249866-6.300686-2.576829-14.907715 3.723856-19.157581L905.420929 471.559778c6.300686-4.249866 14.907715-2.576829 19.15758 3.723856zM939.868787 579.319673c-2.207196 7.278618-10.006 11.453382-17.284618 9.246187l-26.447902-8.094352c-7.278618-2.207196-11.453382-10.006-9.246186-17.284618 2.207196-7.278618 10.006-11.453382 17.284618-9.246187l26.447902 8.094352c7.334538 2.290099 11.453382 10.006 9.246186 17.284618zM746.625904 428.735483c6.300686-4.249866 14.907715-2.576829 19.157581 3.723857l15.489643 22.96434c4.249866 6.300686 2.576829 14.907715-3.723856 19.157581-6.300686 4.249866-14.907715 2.576829-19.157581-3.723856L742.902048 447.893064C738.569278 441.648297 740.242315 433.041269 746.625904 428.735483zM870.487132 612.367306c6.300686-4.249866 14.907715-2.576829 19.157581 3.723856l15.489643 22.964341c4.249866 6.300686 2.576829 14.907715-3.723856 19.15758-6.300686 4.249866-14.907715 2.576829-19.157581-3.723856l-15.489643-22.964341c-4.33277-6.244766-2.659733-14.851795 3.723856-19.15758zM695.123488 465.042385c6.300686-4.249866 14.907715-2.576829 19.157581 3.723856l15.489643 22.964341c4.249866 6.300686 2.576829 14.907715-3.723856 19.157581-6.300686 4.249866-14.907715 2.576829-19.157581-3.723857L691.399632 484.199966c-4.249866-6.300686-2.576829-14.907715 3.723856-19.157581zM818.984716 648.674207c6.300686-4.249866 14.907715-2.576829 19.157581 3.723857l15.489643 22.96434c4.249866 6.300686 2.576829 14.907715-3.723856 19.157581-6.300686 4.249866-14.907715 2.576829-19.157581-3.723856l-15.489643-22.964341c-4.249866-6.300686-2.576829-14.907715 3.723856-19.157581zM645.606861 499.286124c6.300686-4.249866 14.907715-2.576829 19.157581 3.723856l15.489643 22.964341c4.249866 6.300686 2.576829 14.907715-3.723856 19.157581-6.300686 4.249866-14.907715 2.576829-19.157581-3.723857L641.883005 518.443705c-4.249866-6.300686-2.576829-14.907715 3.723856-19.157581zM769.468089 682.917946c6.300686-4.249866 14.907715-2.576829 19.157581 3.723857l15.489643 22.964341c4.249866 6.300686 2.576829 14.907715-3.723856 19.15758-6.300686 4.249866-14.907715 2.576829-19.157581-3.723856l-15.489643-22.964341c-4.249866-6.300686-2.576829-14.907715 3.723856-19.157581zM596.253103 548.256488c6.300686-4.249866 14.907715-2.576829 19.15758 3.723856l15.489644 22.964341c4.249866 6.300686 2.576829 14.907715-3.723857 19.157581-6.300686 4.249866-14.907715 2.576829-19.15758-3.723857L592.585166 567.496972c-4.305785-6.383589-2.632748-14.990618 3.667937-19.240484zM706.051605 711.21829c6.300686-4.249866 14.907715-2.576829 19.15758 3.723857l15.489644 22.96434c4.249866 6.300686 2.576829 14.907715-3.723857 19.157581-6.300686 4.249866-14.907715 2.576829-19.15758-3.723857l-15.489644-22.96434c-4.33277-6.244766-2.659733-14.851795 3.723857-19.157581zM544.544883 592.663244c6.300686-4.249866 14.907715-2.576829 19.157581 3.723857l15.489643 22.96434c4.249866 6.300686 2.576829 14.907715-3.723856 19.157581-6.300686 4.249866-14.907715 2.576829-19.157581-3.723856L540.876946 611.903729c-4.388689-6.32767-2.715652-14.934699 3.667937-19.240485zM644.726897 736.539629c6.300686-4.249866 14.907715-2.576829 19.15758 3.723857l15.489644 22.96434c4.249866 6.300686 2.576829 14.907715-3.723857 19.157581-6.300686 4.249866-14.907715 2.576829-19.15758-3.723857l-15.489644-22.96434c-4.249866-6.300686-2.576829-14.907715 3.723857-19.157581zM503.394375 630.189977c6.300686-4.249866 14.907715-2.576829 19.157581 3.723857l15.489643 22.964341c4.249866 6.300686 2.576829 14.907715-3.723856 19.15758-6.300686 4.249866-14.907715 2.576829-19.157581-3.723856L499.726438 649.430462c-4.305785-6.383589-2.632748-14.990618 3.667937-19.240485zM592.579792 761.339821c6.300686-4.249866 14.907715-2.576829 19.157581 3.723856l15.489643 22.964341c4.249866 6.300686 2.576829 14.907715-3.723856 19.157581-6.300686 4.249866-14.907715 2.576829-19.157581-3.723857l-15.489643-22.964341c-4.249866-6.300686-2.576829-14.907715 3.723856-19.15758zM833.901732 422.217053c7.575448 0.680142 13.269463 7.333576 12.562337 15.047847l-2.402607 27.554264c-0.680142 7.575448-7.333576 13.269463-15.047847 12.562337-7.575448-0.680142-13.269463-7.333576-12.562336-15.047847L818.853885 434.77939c0.680142-7.575448 7.389495-13.18656 15.047847-12.562337z" fill="#333333" p-id="1837"></path><path d="M565.956877 506.651539a13.8 55.4 30 1 1-55.4 95.955615 13.8 55.4 30 1 1 55.4-95.955615Z" fill="#8CC53C" p-id="1838"></path><path d="M564.155211 504.572116L319.897848 316.43828c-42.399346-32.562178-103.311386-24.65943-135.960167 17.689916-2.619615 3.337307-5.029423 6.911216-7.179423 10.635125-26.8 46.418962-10.914497 105.704464 35.504465 132.504464 3.723909 2.15 7.597818 4.040192 11.535125 5.620577l284.920761 117.502766" fill="#8CC53C" p-id="1839"></path><path d="M508.780786 614.283433c-1.749038 0.029423-3.521281-0.300962-5.266729-1.077757l-284.920761-117.502766c-4.456922-1.880385-8.987049-4.033975-13.143971-6.433974-25.634352-14.8-43.959858-38.659292-51.646392-67.345826-7.649931-28.549931-3.745826-58.51204 11.054175-84.146391 2.45-4.243524 5.159808-8.337049 8.166025-12.143971 37.314806-48.431139 106.989023-57.510424 155.420163-20.195619l244.220761 187.997234c6.081793 4.666025 7.171728 13.378203 2.505702 19.459996s-13.378203 7.171728-19.459996 2.505703L311.439002 327.48943c-36.267553-27.982755-88.604018-21.13334-116.586773 15.134214-2.233013 2.867691-4.256218 5.971985-6.106217 9.17628-11.1 19.225764-14.102182 41.625695-8.355583 63.072293 5.746599 21.446599 19.54653 39.344417 38.772294 50.444418 3.204294 1.85 6.508588 3.526795 9.876279 4.893782l284.920761 117.502766c7.081793 2.933975 10.407368 10.973909 7.559996 18.105702-2.10718 5.249742-7.318653 8.476279-12.738973 8.464548z" fill="#333333" p-id="1840"></path><path d="M526.831748 580.01825c-2.058846-0.033975-4.227499-0.477757-6.182755-1.491154l-332.76504-166.834044c-0.916025-0.413397-1.868653-0.963397-2.734678-1.463397-25.287942-14.6-33.999346-47.111405-19.399347-72.399347 0.5-0.866025 1.05-1.818653 1.636603-2.634678 7.74282-11.810958 19.69878-19.919288 33.578649-22.759928C214.84505 309.595064 228.972995 312.324744 240.783953 320.067565l312.077476 205.465956c6.381793 4.14641 8.191343 12.812178 3.95833 19.143971-4.14641 6.381793-12.812178 8.191343-19.143971 3.95833l-312.077475-205.465956c-11.637753-7.64282-27.380058-4.376349-35.109481 7.211404l-0.75 1.299038c-7 12.124356-2.77731 27.610443 9.260443 34.560443l1.299038 0.75 332.76504 166.834044c6.781793 3.45359 9.597561 11.776537 6.143971 18.55833-2.440192 4.826537-7.315064 7.670062-12.375576 7.635125z" fill="#333333" p-id="1841"></path><path d="M131.438335 319.059731c-3.8 6.581793-1.530642 15.051151 5.05115 18.851151l23.988904 13.85c6.581793 3.8 15.051151 1.530642 18.851151-5.051151 3.8-6.581793 1.530642-15.051151-5.051151-18.85115L150.289485 314.008581c-6.581793-3.8-15.051151-1.530642-18.85115 5.05115zM123.442491 423.90894c2.70955 7.106922 10.780573 10.727499 17.887495 8.017949l25.818842-9.919546c7.106922-2.70955 10.727499-10.780573 8.017949-17.887496-2.70955-7.106922-10.780573-10.727499-17.887495-8.017949l-25.818842 9.919546c-7.156922 2.796152-10.727499 10.780573-8.017949 17.887496zM305.710421 260.211623c-6.581793-3.8-15.051151-1.530642-18.85115 5.051151l-13.85 23.988903c-3.8 6.581793-1.530642 15.051151 5.05115 18.851151 6.581793 3.8 15.051151 1.530642 18.851151-5.051151L310.711572 279.149376C314.648175 272.53098 312.378817 264.061623 305.710421 260.211623zM194.960421 452.03625c-6.581793-3.8-15.051151-1.530642-18.85115 5.05115l-13.85 23.988904c-3.8 6.581793-1.530642 15.051151 5.05115 18.851151 6.581793 3.8 15.051151 1.530642 18.851151-5.051151l13.85-23.988904c3.886603-6.531793 1.617245-15.001151-5.051151-18.85115zM359.620022 292.837456c-6.581793-3.8-15.051151-1.530642-18.851151 5.051151l-13.85 23.988903c-3.8 6.581793-1.530642 15.051151 5.051151 18.851151 6.581793 3.8 15.051151 1.530642 18.85115-5.051151L364.671172 311.688607c3.8-6.581793 1.530642-15.051151-5.05115-18.851151zM248.870022 484.662083c-6.581793-3.8-15.051151-1.530642-18.851151 5.05115l-13.85 23.988904c-3.8 6.581793-1.530642 15.051151 5.051151 18.851151 6.581793 3.8 15.051151 1.530642 18.85115-5.051151l13.85-23.988904c3.8-6.581793 1.530642-15.051151-5.05115-18.85115zM411.404751 323.543674c-6.581793-3.8-15.051151-1.530642-18.85115 5.05115l-13.85 23.988904c-3.8 6.581793-1.530642 15.051151 5.05115 18.851151 6.581793 3.8 15.051151 1.530642 18.851151-5.051151L416.455902 342.394824c3.8-6.581793 1.530642-15.051151-5.051151-18.85115zM300.654751 515.368301c-6.581793-3.8-15.051151-1.530642-18.85115 5.05115l-13.85 23.988904c-3.8 6.581793-1.530642 15.051151 5.05115 18.851151 6.581793 3.8 15.051151 1.530642 18.851151-5.051151l13.85-23.988904c3.8-6.581793 1.530642-15.051151-5.051151-18.85115zM464.054286 368.952004c-6.581793-3.8-15.051151-1.530642-18.85115 5.051151l-13.85 23.988903c-3.8 6.581793-1.530642 15.051151 5.05115 18.851151 6.581793 3.8 15.051151 1.530642 18.851151-5.051151L469.055437 387.889757c3.85-6.668396 1.580642-15.137753-5.001151-18.937753zM365.890889 539.175996c-6.581793-3.8-15.051151-1.530642-18.851151 5.05115l-13.85 23.988904c-3.8 6.581793-1.530642 15.051151 5.051151 18.851151 6.581793 3.8 15.051151 1.530642 18.85115-5.051151l13.85-23.988904c3.886603-6.531793 1.617245-15.001151-5.05115-18.85115zM518.734206 409.643605c-6.581793-3.8-15.051151-1.530642-18.85115 5.05115l-13.85 23.988904c-3.8 6.581793-1.530642 15.051151 5.05115 18.851151 6.581793 3.8 15.051151 1.530642 18.851151-5.051151L523.735357 428.581358c3.936603-6.618396 1.667245-15.087753-5.001151-18.937753zM428.83254 560.157858c-6.581793-3.8-15.051151-1.530642-18.851151 5.051151l-13.85 23.988903c-3.8 6.581793-1.530642 15.051151 5.051151 18.851151 6.581793 3.8 15.051151 1.530642 18.851151-5.051151l13.85-23.988903c3.8-6.581793 1.530642-15.051151-5.051151-18.851151zM562.402206 444.20841c-6.581793-3.8-15.051151-1.530642-18.851151 5.051151l-13.85 23.988904c-3.8 6.581793-1.530642 15.051151 5.051151 18.85115 6.581793 3.8 15.051151 1.530642 18.85115-5.05115L567.403356 463.146164c3.85-6.668396 1.580642-15.137753-5.00115-18.937754zM482.582591 581.26004c-6.581793-3.8-15.051151-1.530642-18.851151 5.05115l-13.85 23.988904c-3.8 6.581793-1.530642 15.051151 5.051151 18.85115 6.581793 3.8 15.051151 1.530642 18.85115-5.05115l13.85-23.988904c3.8-6.581793 1.530642-15.051151-5.05115-18.85115zM218.192491 259.797125c-7.50955 1.206922-12.725575 8.241343-11.482051 15.887496l4.318842 27.319546c1.206922 7.50955 8.241343 12.725575 15.887495 11.482051 7.50955-1.206922 12.725575-8.241343 11.482051-15.887496L234.079986 271.279176c-1.206922-7.50955-8.291343-12.638973-15.887495-11.482051z" fill="#333333" p-id="1842"></path><path d="M413.667 885.483a92.8 23.2 0 1 0 185.6 0 92.8 23.2 0 1 0-185.6 0Z" fill="#8CC53C" p-id="1843"></path><path d="M412.067 880.983L343.867 369.283c-11.9-89 50.6-170.6 139.5-182.5 7.1-0.9 14.3-1.4 21.5-1.4 89.7 0 162.4 72.7 162.4 162.4 0 7.2-0.5 14.3-1.4 21.5L597.567 880.983" fill="#8CC53C" p-id="1844"></path><path d="M597.567 902.383c-0.9 0-1.9-0.1-2.8-0.2-11.7-1.6-19.9-12.3-18.3-24l68.2-511.8c0.8-6.2 1.2-12.4 1.2-18.6 0-77.8-63.3-141.1-141.1-141.1-6.2 0-12.5 0.4-18.6 1.2-37.4 5-70.5 24.2-93.4 54.1S359.967 329.083 364.967 366.383l68.2 511.8c1.6 11.7-6.6 22.4-18.3 24-11.7 1.5-22.4-6.6-24-18.3L322.667 372.083C309.267 271.583 380.067 178.983 480.567 165.683c8-1.1 16.2-1.6 24.3-1.6 101.3 0 183.7 82.4 183.7 183.7 0 8.1-0.5 16.3-1.6 24.3l-68.2 511.8c-1.5 10.7-10.6 18.5-21.2 18.5z" fill="#333333" p-id="1845"></path><path d="M475.167 902.083c-11.2 0-20.6-8.7-21.3-20.1l-36.7-624.6c-2.8-47.8 33.8-89.1 81.7-91.9 1.7-0.1 3.4-0.2 5.1-0.2 47.9 0 86.9 39 86.9 86.9 0 1.7 0 3.4-0.1 5.1l-36.6 622.4c-0.7 11.8-10.8 20.7-22.5 20-11.8-0.7-20.7-10.8-20-22.5l36.6-622.4c0.1-0.9 0.1-1.7 0.1-2.6 0-24.4-19.9-44.3-44.3-44.3-0.9 0-1.7 0-2.6 0.1-24.4 1.4-43 22.4-41.6 46.8l36.7 624.6c0.7 11.8-8.3 21.9-20 22.5-0.6 0.2-1 0.2-1.4 0.2z" fill="#333333" p-id="1846"></path><path d="M505.467 97.983c12.8 0 23.2 10.4 23.2 23.2v46.4c0 12.8-10.4 23.2-23.2 23.2-12.8 0-23.2-10.4-23.2-23.2V121.183c0-12.8 10.4-23.2 23.2-23.2zM664.267 174.283c8.1 10 6.5 24.6-3.4 32.6l-36 29.2c-10 8.1-24.6 6.5-32.6-3.4-8.1-10-6.5-24.6 3.4-32.6l36-29.2c9.9-8.1 24.5-6.6 32.6 3.4zM645.167 301.583c0-12.8 10.4-23.2 23.2-23.2h46.4c12.8 0 23.2 10.4 23.2 23.2 0 12.8-10.4 23.2-23.2 23.2h-46.4c-12.8 0-23.2-10.4-23.2-23.2zM647.267 406.983c0-12.8 10.4-23.2 23.2-23.2h46.4c12.8 0 23.2 10.4 23.2 23.2 0 12.8-10.4 23.2-23.2 23.2h-46.4c-12.8 0-23.2-10.4-23.2-23.2zM299.167 648.183c0-12.8 10.4-23.2 23.2-23.2h46.4c12.8 0 23.2 10.4 23.2 23.2 0 12.8-10.4 23.2-23.2 23.2H322.367c-12.9 0-23.2-10.4-23.2-23.2zM312.467 735.783c0-12.8 10.4-23.2 23.2-23.2h46.4c12.8 0 23.2 10.4 23.2 23.2 0 12.8-10.4 23.2-23.2 23.2H335.667c-12.8-0.1-23.2-10.4-23.2-23.2zM326.067 827.883c0-12.8 10.4-23.2 23.2-23.2h46.4c12.8 0 23.2 10.4 23.2 23.2 0 12.8-10.4 23.2-23.2 23.2H349.267c-12.8 0-23.2-10.4-23.2-23.2zM591.567 826.883c0-12.8 10.4-23.2 23.2-23.2h46.4c12.8 0 23.2 10.4 23.2 23.2 0 12.8-10.4 23.2-23.2 23.2h-46.4c-12.8 0-23.2-10.4-23.2-23.2zM346.767 174.283c8.1-10 22.7-11.5 32.6-3.4l36 29.2c10 8.1 11.5 22.7 3.4 32.6-8.1 10-22.7 11.5-32.6 3.4l-36-29.2c-9.9-8.1-11.5-22.7-3.4-32.6z" fill="#333333" p-id="1847"></path></svg>