<?xml version="1.0" standalone="no"?><!DOCTYPE svg PUBLIC "-//W3C//DTD SVG 1.1//EN" "http://www.w3.org/Graphics/SVG/1.1/DTD/svg11.dtd"><svg t="1732901276471" class="icon" viewBox="0 0 1024 1024" version="1.1" xmlns="http://www.w3.org/2000/svg" p-id="1628" xmlns:xlink="http://www.w3.org/1999/xlink" width="200" height="200"><path d="M287.76003 920.16109a149.3 99.6 8.998 1 0 31.154878-196.748605 149.3 99.6 8.998 1 0-31.154878 196.748605Z" fill="#BDDF9A" p-id="1629"></path><path d="M322.5 944.3c-12.5 0-25.3-1-38.1-3-43.5-6.9-82.9-24.9-110.9-50.7-30.3-28-44.1-61.9-38.8-95.4 5.3-33.5 28.9-61.5 66.4-78.7 34.6-15.9 77.6-20.9 121.1-14 43.5 6.9 82.9 24.9 110.9 50.7 30.3 28 44.1 61.9 38.8 95.4-5.3 33.5-28.9 61.5-66.4 78.7-24.3 11.2-53 17-83 17z m-38.4-202.2c-23.8 0-46.2 4.5-65.1 13.1-24.1 11.1-39 27.6-42.1 46.6-3 19 6.1 39.4 25.6 57.4 21.9 20.2 53.3 34.3 88.6 39.9 35.3 5.6 69.6 1.8 96.6-10.6 24.1-11.1 39-27.6 42.1-46.6 3-19-6.1-39.4-25.6-57.4-21.9-20.2-53.3-34.3-88.6-39.9-10.6-1.7-21.2-2.5-31.5-2.5z" fill="#333333" p-id="1630"></path><path d="M575.236854 846.076078a99.6 149.3 82.998 1 0 296.373011-36.400532 99.6 149.3 82.998 1 0-296.373011 36.400532Z" fill="#BDDF9A" p-id="1631"></path><path d="M708.3 949.7c-33 0-64.5-6.9-90.7-20-36.9-18.5-59.4-47.3-63.6-81-4.1-33.7 10.8-67.1 42.1-94 28.9-24.8 68.8-41.4 112.6-46.8 43.7-5.4 86.5 1.1 120.5 18.2 36.9 18.5 59.4 47.3 63.6 81 4.1 33.7-10.8 67.1-42.1 94-28.9 24.8-68.8 41.4-112.6 46.8-10 1.2-20 1.8-29.8 1.8z m5.6-199.4c-68.9 8.5-122.7 51.2-117.5 93.2 2.3 19.1 16.7 36.2 40.4 48.1 26.6 13.4 60.7 18.3 96.2 14 68.9-8.5 122.7-51.2 117.5-93.2-5.2-42.2-67.7-70.6-136.6-62.1zM502.7 908.2c-1 0-2.1-0.1-3.1-0.2-11.7-1.7-19.7-12.5-18-24.2 0.6-4.2 1.9-9.6 3.8-17.1 8.8-35.7 29.4-119.2 8.2-230.7-2.2-11.6 5.4-22.7 17-24.9 11.6-2.2 22.7 5.4 24.9 17 23 120.7 0.8 210.5-8.6 248.9-1.4 5.6-2.7 10.8-3 13-1.6 10.5-10.7 18.2-21.2 18.2z" fill="#333333" p-id="1632"></path><path d="M539.3 680.4m-25.1 0a25.1 25.1 0 1 0 50.2 0 25.1 25.1 0 1 0-50.2 0Z" fill="#333333" p-id="1633"></path><path d="M504 722.9m-25.1 0a25.1 25.1 0 1 0 50.2 0 25.1 25.1 0 1 0-50.2 0Z" fill="#333333" p-id="1634"></path><path d="M539.5 761m-25.1 0a25.1 25.1 0 1 0 50.2 0 25.1 25.1 0 1 0-50.2 0Z" fill="#333333" p-id="1635"></path><path d="M478.531293 811.597265a25.1 25.1 0 1 0 46.378752-19.210709 25.1 25.1 0 1 0-46.378752 19.210709Z" fill="#333333" p-id="1636"></path><path d="M505.504448 837.684304a25.1 25.1 0 1 0 46.378752-19.210708 25.1 25.1 0 1 0-46.378752 19.210708Z" fill="#333333" p-id="1637"></path><path d="M517.8 455.1c79.7 0 160.6 38 207.6 14.2 36.3-18.4 48.4-95.2 48.4-120.9 0-58.9-114.6-106.7-256-106.7s-256 47.8-256 106.7c0 19-26.6 62.8-5.8 78.2 43.9 32.6 165.9 28.5 261.8 28.5z" fill="#FBAB9D" p-id="1638"></path><path d="M441.2 212.1a75.3 50.2 0 1 0 150.6 0 75.3 50.2 0 1 0-150.6 0Z" fill="#FBAB9D" p-id="1639"></path><path d="M640.7 232.8c-32.8-22.2-75.1-47.7-119.6-71.3-47.1 21.8-89.3 49.6-120.1 74.2" fill="#FBAB9D" p-id="1640"></path><path d="M414.3 252.3L387.6 219c36.8-29.5 81-56.8 124.5-76.9l9.6-4.5 9.4 5c43.4 23.1 86.6 48.9 121.6 72.5l-23.9 35.3c-31.2-21.1-69.3-44-108.3-65.1-49.9 24.3-87.6 52.1-106.2 67z" fill="#333333" p-id="1641"></path><path d="M479.4 273.1c-22.8-12.6-77.5-43-177.9-43-56.6 74.7-58 139.3-59.4 168.4" fill="#FBAB9D" p-id="1642"></path><path d="M242.1 419.9h-1c-11.8-0.6-20.8-10.6-20.3-22.3l0.1-2.5c1.5-32.4 4.7-99.9 63.6-177.8l6.4-8.5h10.6c105.7 0 163.5 32 188.1 45.6l0.1 0.1c10.3 5.7 14 18.7 8.3 29s-18.7 14-29 8.3l-0.1-0.1c-20.9-11.6-68.9-38.1-156.7-40.1-44.9 63.6-47.4 118.4-48.7 145.4l-0.1 2.6c-0.5 11.4-10 20.3-21.3 20.3z" fill="#333333" p-id="1643"></path><path d="M547.5 274.3c22.8-12.6 77.5-43 177.9-43 56.6 74.7 58 139.3 59.4 168.4" fill="#FBAB9D" p-id="1644"></path><path d="M763.5 400.8l-0.1-2.6c-1.3-26.9-3.8-81.7-48.7-145.4-87.8 2-135.8 28.6-156.7 40.1l-0.1 0.1-20.7-37.3 0.1-0.1C562 242 619.7 210 725.4 210H736l6.4 8.5c59 77.9 62.1 145.3 63.6 177.8l0.1 2.5-42.6 2z" fill="#333333" p-id="1645"></path><path d="M428.4 649.5c-125.7 96.8-337.8-89-251.6-244.6 46.6 12.5 90.2 10.7 129.5 8.7" fill="#FBAB9D" p-id="1646"></path><path d="M349.4 697.5c-8.1 0-16.3-0.6-24.7-1.8-37.9-5.5-76.6-24-109.2-52-35.3-30.4-61.2-70-73-111.5-13.5-47.5-8.1-95.1 15.5-137.7l8.1-14.6 16.1 4.3c44.9 12 88.1 9.8 122.9 8l2.2 42.6c-31.7 1.6-73.9 3.8-118.8-5.4-28.5 68.2 5.6 139.4 55 181.8 26.5 22.8 57.6 37.7 87.5 42.1 31.5 4.6 60.7-2.6 84.4-20.9l26 33.8c-26.7 20.8-58.2 31.3-92 31.3z" fill="#333333" p-id="1647"></path><path d="M499.8 640.5c-194.6 66.4-281.3-258.5-103-337.9 32.2 41.2 71.5 66.8 106.2 90.3" fill="#FBAB9D" p-id="1648"></path><path d="M449.1 670.7c-26.7 0-52.1-6.8-75.2-20.3-34-19.9-62-54.2-78.6-96.7-18.9-48.3-22.1-103.4-8.6-151.3 7.3-26.1 19.3-49.4 35.5-69.2 17.6-21.6 39.8-38.4 66-50l15.2-6.8 10.3 13.1c28.7 36.7 63.2 60 96.6 82.6l4.7 3.2-24 35.3-4.7-3.2c-30.6-20.7-64.8-43.8-95-78-38.9 22.7-56 57.8-63.6 84.6-11 39.1-8.4 84.4 7.2 124.2 22.8 58 76.2 110.1 157.9 82.2l13.8 40.4c-19.5 6.6-38.8 9.9-57.5 9.9z" fill="#333333" p-id="1649"></path><path d="M451.4 344.6l-36.7-34.3c29.9-32 63.5-53.6 99.8-64.1l7.2-2.1 7.2 2.2c37.6 11.5 69.7 34 93 65l-40.1 30.1c-15.6-20.8-35.9-35.8-60.4-44.7-24.9 8.7-48.4 24.8-70 47.9z" fill="#333333" p-id="1650"></path><path d="M594.4 653.6c122.1 69.5 316.9-90.5 246.1-242.2-39.7 7.7-76.6 5.6-110.5 1.9" fill="#FBAB9D" p-id="1651"></path><path d="M659.5 691.7c-27.2 0-52.8-6.6-75.6-19.5l21.1-37.1c24.4 13.9 53.8 17.5 85.2 10.4 30.3-6.8 60.9-23.3 86-46.5 40.3-37.2 73.1-98.5 51-163.8-36.6 4.8-70.4 2.5-99.4-0.7l4.6-42.4c31.8 3.5 66.5 5.7 104.1-1.6l16.4-3.2 7 15.1c18.6 39.9 22 83.5 9.9 126-10.8 37.7-33.2 73-64.7 102-30.6 28.2-68.1 48.3-105.6 56.8-13.6 3-27 4.5-40 4.5z" fill="#333333" p-id="1652"></path><path d="M497.9 630.9c203 99 311.9-238.8 131.5-326.8-66.6 79.2-158.9 96.7-189.3 159s-4.5 137.4 57.8 167.8z" fill="#FBAB9D" p-id="1653"></path><path d="M569.6 670.2c-26.4 0-53.6-6.8-81.1-20.2-72.8-35.5-103.1-123.6-67.6-196.3 18.4-37.7 54.5-60.3 92.7-84.2 34.2-21.4 69.5-43.5 99.4-79.1l10.7-12.8 15 7.3c60.4 29.4 97.9 87.7 102.9 159.7 5.6 80.1-29.8 160.4-88.1 199.7-23 15.5-48.4 24.1-75.5 25.6-2.8 0.2-5.6 0.3-8.4 0.3zM633.9 331c-31.4 33.2-66.4 55.1-97.7 74.7-34.3 21.5-63.9 40-77 66.8-25.2 51.6-3.7 114.1 48 139.3 21.6 10.5 42.5 15.8 62.4 15.8 21.5 0 41.7-6.2 60-18.5 45.4-30.6 73.9-97 69.4-161.4-2-30.7-13.6-84.3-65.1-116.7z" fill="#333333" p-id="1654"></path><path d="M322.8 872.2c-3.3 0-6.1-2.6-6.4-6-1.4-20.7-8.7-41.4-21.5-61.4-1.9-3-1-6.9 1.9-8.8 3-1.9 6.9-1 8.8 1.9 14 21.9 21.9 44.5 23.5 67.4 0.2 3.5-2.4 6.6-5.9 6.8-0.1 0.1-0.3 0.1-0.4 0.1z" fill="#333333" p-id="1655"></path><path d="M365.1 821.5c-1 0-2.1-0.3-3.1-0.8-33.5-18.6-77.2-20.3-129.9-5.2-3.4 1-6.9-1-7.9-4.4-1-3.4 1-6.9 4.4-7.9 56.1-16.1 103.1-14 139.7 6.3 3.1 1.7 4.2 5.6 2.5 8.7-1.3 2.1-3.4 3.3-5.7 3.3zM728.8 858.8c-1.5 0-2.9-0.5-4.2-1.5-20.6-17.6-35.2-37.9-43.4-60.2-1.2-3.3 0.5-7 3.8-8.2 3.3-1.2 7 0.5 8.2 3.8 7.4 20.2 20.7 38.7 39.7 54.9 2.7 2.3 3 6.3 0.7 9-1.2 1.4-3 2.2-4.8 2.2z" fill="#333333" p-id="1656"></path><path d="M703.7 864c-14.4 0-28.1-2.1-41.1-6.3-3.4-1.1-5.2-4.7-4.1-8.1 1.1-3.4 4.7-5.2 8.1-4.1 36.4 11.8 79.7 5.2 128.5-19.7 3.1-1.6 7-0.4 8.6 2.8 1.6 3.1 0.4 7-2.8 8.6-35 17.8-67.5 26.8-97.2 26.8z" fill="#333333" p-id="1657"></path></svg>