<?xml version="1.0" standalone="no"?><!DOCTYPE svg PUBLIC "-//W3C//DTD SVG 1.1//EN" "http://www.w3.org/Graphics/SVG/1.1/DTD/svg11.dtd"><svg t="1732901193105" class="icon" viewBox="0 0 1024 1024" version="1.1" xmlns="http://www.w3.org/2000/svg" p-id="1628" xmlns:xlink="http://www.w3.org/1999/xlink" width="200" height="200"><path d="M465.9 971.5c-8.6 0-16.7-5.3-20-13.8-0.6-1.6-1.2-3.6-2.3-6.9-27.2-85.3-96.2-239.8-253.4-317-10.6-5.2-14.9-18-9.7-28.6 5.2-10.6 18-14.9 28.6-9.7 83.3 40.9 153 105.8 207.1 193 42.3 68.2 61.8 129.3 68.2 149.3 0.6 1.9 1.3 4.1 1.5 4.8 4.2 11-1.4 23.3-12.4 27.5-2.6 1-5.1 1.4-7.6 1.4zM613.9 867.7c-4.5 0-9-1.4-12.8-4.3-59.5-44.7-106.3-99.1-139.1-161.8-26.8-51.2-44.5-108.2-52.4-169.5-9.3-71-5.6-145.5 11-221.3 0.4-2 0.9-4.2 1-4.9 1.9-11.6 12.9-19.5 24.5-17.6 11.6 1.9 19.5 12.9 17.6 24.5-0.3 1.6-0.7 3.7-1.5 7.1-15.5 71-19 140.5-10.4 206.7 7.3 56.2 23.5 108.5 47.9 155.2 29.8 57 72.5 106.6 126.9 147.5 9.4 7.1 11.3 20.4 4.2 29.9-4 5.6-10.4 8.5-16.9 8.5z" fill="#333333" p-id="1629"></path><path d="M373.8 925.3c-3 0-6.1-0.7-9.1-2-10.7-5-15.2-17.7-10.2-28.4 51.2-108.9 112.1-193 181-250 57.2-47.3 105.3-64.1 131.2-73.1 3.7-1.3 8-2.8 10.6-3.9 5.3-5.5 13.4-8 21.2-5.8 11.3 3.2 17.9 15 14.7 26.3-3.8 13.6-15.9 17.8-32.5 23.6-23.3 8.1-66.7 23.3-118.1 65.7-64 52.9-121.1 132.1-169.6 235.3-3.6 7.7-11.2 12.3-19.2 12.3z m298.4-348.6s0 0.1 0 0c0 0.1 0 0 0 0z m0 0z" fill="#333333" p-id="1630"></path><path d="M133.4 526.6c28.6-32.9 66.6-53.1 107-60.2l-2.6-17.6c6.6 44.3 13.2 88.7 19.8 133 0.3 2 2.2 3.4 4.2 3.1 1.4-0.2 2.6-1.3 3-2.6L297 465c37.7 4.6 74.7 20.3 105.9 47.4 9.9 8.6 18.7 17.9 26.5 27.8l-84.1 77.3c-1.5 1.4-1.6 3.7-0.2 5.2 0.9 1 2.4 1.4 3.7 1l110.1-30.9c19.1 51.3 16 108.7-10.6 156.9-39.5-7.6-81.3-29.8-125.5-66.8l-3.7-3.1c-1.5-1.3-3.8-1.1-5.2 0.4-0.9 1-1.1 2.4-0.6 3.6 22 59.3 22.8 112 2.3 158.1-38.4 6-78.9 0.2-115.4-17.7l59.6-122c0.9-1.8 0.1-4-1.7-4.9-1.1-0.5-2.3-0.5-3.4 0.1L129 766c-19-24.8-31.4-53.1-37-82.4L73 689l148.2-42.3c1.9-0.6 3.1-2.6 2.5-4.5-0.4-1.3-1.4-2.3-2.7-2.6L92.2 610.9c6-30.4 19.7-59.4 41.2-84.3z" fill="#5DC664" p-id="1631"></path><path d="M285.9 862.6c-32.2 0-64.1-7.4-93.7-21.9l-16.4-8 47.5-97.2-99.2 54-9.5-12.4c-16.2-21.1-28.4-45.3-35.8-70.7l-0.7 0.2-10-35.2 38.2-10.9 54.6-15.6-90.1-20.1 3.5-17.5C81 573 96.7 541 119.6 514.6c26.7-30.7 61.1-52.1 100.3-62.4l-0.1-0.7 8-1.2c3.2-0.7 6.3-1.3 9.5-1.9l0.1 0.5 18.5-2.8 9.6 64.4 18-65.6 15.7 1.9c42.7 5.2 82.8 23.1 115.7 51.7 10.6 9.2 20.3 19.4 28.9 30.4l10.4 13.3-51.5 47.4 67.5-18.9 5.9 15.8c21.4 57.3 17.1 120-11.7 172.2l-6.4 11.6-13-2.5c-32.5-6.2-66.5-21.6-101.5-46 9.7 46.4 6 89.2-11.1 127.7l-4 9.1-9.8 1.5c-11 1.7-21.9 2.5-32.7 2.5zM225 815.1c24.9 9.2 51.4 12.7 77.7 10.1 6.6-17.9 9.7-37.1 9.5-57.1-0.3-24.1-5.7-50.3-16-77.9-2.8-7.4-1.3-15.8 3.9-21.9 3.8-4.5 9.1-7.2 15-7.6 5.8-0.5 11.5 1.4 16 5.2l3.6 3c36.5 30.5 71.4 50.5 103.8 59.7 15.8-35.2 18.7-75.3 8.5-113.5l-93.2 26.1c-8 2.2-16.5-0.2-22.1-6.3-4-4.3-6-9.9-5.8-15.8 0.2-5.9 2.8-11.3 7.1-15.2l71.1-65.3c-4.1-4.4-8.5-8.6-13.1-12.6-23.4-20.3-51-34.1-80.7-40.4L282.4 587c-2.3 8.4-9.3 14.6-17.9 15.9-1.1 0.2-2.2 0.2-3.2 0.2-10.7 0-20.1-7.8-21.7-18.7l-14.3-95.8c-30.4 8.8-57.2 25.9-78.1 50-14.8 17-26 37-32.7 58.5L225 621.8c7.9 1.8 14.1 7.7 16.3 15.4 1.6 5.6 0.9 11.6-1.9 16.7s-7.5 8.8-13.2 10.4l-112.4 32c4.7 16.1 11.7 31.5 20.7 45.8L246 681.5c6.2-3.4 13.7-3.6 20.1-0.4 5.3 2.6 9.2 7 11.1 12.6 1.9 5.5 1.5 11.5-1 16.8L225 815.1z m82.3-121.3l0.1 0.1-0.1-0.1z" fill="#333333" p-id="1632"></path><path d="M944.2 496.4c-14.5-47.5-45.7-85.7-86.2-111.2l11.8-17.4c-29.8 43.9-59.6 87.7-89.4 131.6-1.3 1.9-4 2.5-5.9 1.1-1.4-0.9-2.1-2.6-1.8-4.3L797 358.4c-43.4-12-91.9-12-139.6 2.6-13.3 4.1-26 9.1-38 15l-6.3-16c18.4 46.2 36.7 92.5 55.1 138.7 0.9 2.2-0.2 4.7-2.4 5.5-1.4 0.6-3 0.3-4.2-0.6l-106-82.9c-8.6 8.4-16.5 17.3-23.7 26.6-7.2 9.5-13.6 19.4-19.2 29.7-18.9 35-28.1 74.1-25.3 113.6 46.8 9.7 103.7 4.9 170.6-14.2l5.6-1.6c2.3-0.7 4.6 0.6 5.3 2.9 0.4 1.5 0 3.2-1.1 4.3-53.9 52.4-81.4 107.5-82.4 165.1 38.9 23.5 86 35.4 134.9 32.9l0.4 21.8c-1.2-59.1-2.3-118.2-3.5-177.3 0-2.4 1.8-4.3 4.2-4.3 1.3 0 2.6 0.6 3.4 1.6l102.8 128.7c33.2-17.6 61.1-41.8 82-70l-122-96.6c-1.8-1.5-2.2-4.1-0.7-6 1-1.2 2.5-1.8 4.1-1.6l155.5 27.3c8.8-34.8 8.6-71.5-2.3-107.2z" fill="#5DC664" p-id="1633"></path><path d="M699.2 802.2v-0.6c-44.8-1.3-87.7-13.6-125-36.2l-10.5-6.4 0.2-12.3c0.9-47.7 18.2-94 51.5-138-49.9 9.8-94.3 10.7-132.4 2.9l-15.8-3.3-1.2-16.1c-3.1-42.7 6.5-86 27.8-125.3 6.1-11.2 13.2-22.2 21-32.5 7.8-10.2 16.5-20 25.8-29l13.3-12.9 71 55.6-17-42.7-14.8-37.4 18.6-7.4-1.8-3.7c13.2-6.4 27-11.9 41.2-16.2 50.1-15.3 102.5-16.3 151.5-2.7l18.7 5.2-13.9 78.4 20.4-30L852 356l17 11.6 0.2-0.3c46.7 29.4 79.6 72 95.2 123 11.7 38.2 12.6 79.3 2.5 118.6l-4.9 19.2L853.4 609l85.4 67.6-12.3 16.6c-23.2 31.2-54 57.5-89.2 76.1l-15.6 8.3-82.4-103.2 2.5 127-42.6 0.8z m-92-67.2c27.8 14.5 58.8 22.6 91.2 23.8l-2.6-134c-0.1-6.8 2.4-13.3 7.1-18.2 4.7-4.9 11.1-7.7 18-7.9 7.9-0.2 15.6 3.4 20.5 9.6l91.3 114.3c17.3-11 33.1-24.2 46.6-39.1l-105-83.2c-5.4-4.2-8.7-10.3-9.5-17.1-0.8-6.8 1.1-13.5 5.4-18.8 5.8-7.4 15.2-10.9 24.5-9.3l135 23.7c3.6-25.7 1.7-51.7-5.8-76.3-10.6-34.8-31.3-64.7-60.3-87.5L798 511.4c-7.9 11.7-23.9 14.7-35.6 6.8-8.3-5.7-12.6-15.7-10.8-25.6l20.9-117.9c-35.6-6.5-72.9-4.3-108.8 6.7-5.7 1.7-11.3 3.7-16.9 5.8l41.1 103.6c2.5 6.4 2.4 13.3-0.3 19.6-2.7 6.3-7.7 11.1-14.1 13.7-8.4 3.3-18.1 2-25.2-3.6l-90.8-71c-3.1 3.5-6 7.1-8.8 10.8-6.5 8.6-12.4 17.6-17.4 26.9-14.6 27-22.5 56.1-23.2 85.2 40.2 4.9 88.4-0.7 143.8-16.5l5.5-1.6c13.4-4 27.7 3.8 31.7 17.3 2.7 9.1 0.1 19-6.7 25.6-25.1 24.4-44.2 49.6-56.8 74.8-10.2 20.6-16.4 41.7-18.4 63z m62.3-139.7h-0.1 0.1z" fill="#333333" p-id="1634"></path><path d="M371.2 94.9c53.9-9.5 106.9-0.1 152.7 23.5L533 101c-27.3 52.3-54.6 104.7-81.9 157-1.2 2.4-0.3 5.3 2.1 6.6 1.6 0.8 3.6 0.7 5.1-0.4L591 168.5c22.5 23.4 40.9 51.3 53.7 82.6l-144.5 112c-2.1 1.6-2.5 4.7-0.9 6.8 0.5 0.6 1.2 1.2 1.9 1.5l150.2 65.4c-23 69.1-73.9 126-141.4 153.5-34.4-41-58.9-99.2-73.7-174.5l-1.2-6.3c-0.5-2.6-3-4.4-5.7-3.9-1.7 0.3-3.2 1.6-3.7 3.2-26.6 79.8-69.6 135-129.2 165.5-61.1-35.8-107.6-97.7-123.3-173.7L154 403c61.3-7.6 122.5-15.2 183.8-22.7 2.7-0.3 4.6-2.8 4.2-5.4-0.3-2.1-1.8-3.8-3.9-4.2l-170.5-31.8c1.1-41.8 12-81.8 30.7-116.9l-18.3-8c60.5 26.3 121.1 52.5 181.6 78.8 2.5 1.1 5.3-0.1 6.4-2.5 0.7-1.6 0.5-3.5-0.6-4.9l-108.7-138c31.4-26.4 69.6-45 112.5-52.5z" fill="#5DC664" p-id="1635"></path><path d="M503.5 615.9l-10-11.9c-29.2-34.8-51.9-81.4-67.7-138.8-28.5 59-68.6 102-119.7 128.2l-7.6 3.9-10.7-3.2-2.2-1.3c-62.8-36.8-109-97.6-128.8-168.6h-0.3l-0.2-1.8c-1.6-5.7-3-11.6-4.2-17.4l2-0.4-2.8-22.7 78.3-9.7-83.9-15.7 0.5-18.2c1.1-44.1 12.6-87.8 33.2-126.4l1.2 0.6 7.8-18.1 39.5 17.1 82.1 35.6-81-102.8 15.9-13.3c35.2-29.5 77.5-49.2 122.6-57.2 56.9-10 114.4-1.2 166.2 25.6l-0.8 1.5 19 9.9-49.7 95.3 91.3-65.8 12.8 13.4c24.8 25.9 44.4 55.9 58 89.3l6.1 15-135.3 105 142.6 62-6.1 18.5c-25.4 76.4-81.4 137.1-153.6 166.6l-14.5 5.8z m-73.3-231.7c12.4 0 23.4 8.8 25.7 21.4l1.2 6.2c12.5 63.8 32.4 114.9 59.3 152.2 48-23.8 86.2-64.8 107.8-115.7L492.6 391c-4-1.7-7.6-4.5-10.2-8-8.9-11.4-6.8-27.9 4.7-36.7l131.3-101.7c-8.3-17-18.5-32.9-30.5-47.5l-117.1 84.4c-8.1 5.8-18.6 6.6-27.4 2-12.8-6.7-17.8-22.5-11.1-35.3l62.5-119.7c-38.2-15.4-79.2-19.7-119.7-12.5l-3.7-21 3.7 21c-30.9 5.4-60.3 17.5-86.1 35.3l95.3 120.9c6 7.6 7.3 17.8 3.5 26.6-2.8 6.4-7.9 11.4-14.4 13.9-6.5 2.6-13.6 2.4-20-0.3l-144.5-62.7c-9.8 22.7-16.1 46.9-18.6 71.7l152 28.4c11.3 2.1 19.8 11.2 21.2 22.5 0.9 6.9-1 13.8-5.3 19.3s-10.5 9-17.4 9.9l-140.7 17.4c16.5 53.9 51 100.4 97.3 130.8 22.5-13.3 42.5-31 59.5-52.7 19.9-25.5 36.4-57.5 48.8-94.9 3-9 10.7-15.7 20-17.5 1.4-0.3 3-0.4 4.5-0.4z m-16.1 29.3v0.2-0.2z" fill="#333333" p-id="1636"></path></svg>